<?xml version="1.0" encoding="UTF-8" standalone="no"?>
<!DOCTYPE svg PUBLIC "-//W3C//DTD SVG 1.1//EN" "http://www.w3.org/Graphics/SVG/1.1/DTD/svg11.dtd">
<svg width="100%" height="100%" viewBox="0 0 401 400" version="1.1" xmlns="http://www.w3.org/2000/svg" xmlns:xlink="http://www.w3.org/1999/xlink" xml:space="preserve" xmlns:serif="http://www.serif.com/" style="fill-rule:evenodd;clip-rule:evenodd;stroke-linecap:round;stroke-linejoin:round;stroke-miterlimit:1.5;">
    <g transform="matrix(1,0,0,1,-2251,0)">
        <g id="_3D" serif:id="3D" transform="matrix(1,0,0,1,451.667,0)">
            <rect x="1800" y="0" width="400" height="400" style="fill:none;"/>
            <g transform="matrix(1.46358,0,0,1.46358,-927.16,-39.5771)">
                <g transform="matrix(1,0,0,1,0,-33.2001)">
                    <g transform="matrix(0.767442,0,0,0.813108,496.198,63.8917)">
                        <path d="M1981,231.87L1981,85.13C1981,83.954 1979.99,83 1978.74,83L1940.26,83C1939.01,83 1938,83.954 1938,85.13L1938,231.87" style="fill:none;stroke:black;stroke-width:8.64px;"/>
                    </g>
                    <g>
                        <g transform="matrix(1,0,0,1,0,12.3797)">
                            <path d="M2000,119L2000,102" style="fill:none;stroke:black;stroke-width:2.39px;"/>
                        </g>
                        <g transform="matrix(1.88126,0,0,0.765795,-1765.14,37.2685)">
                            <path d="M1999.8,100.647C1999.77,100.691 1999.75,100.715 1999.78,100.7C1999.8,100.69 1999.8,100.672 1999.8,100.647C1999.85,100.592 1999.91,100.505 1999.91,100.432C1999.56,103.264 2000.21,106.266 2001.36,107.132C2002.52,107.997 2003.74,106.401 2004.09,103.568C2004.36,102.173 2004.35,100.475 2004.32,98.531C2004.27,95.294 2003.61,90.934 2003.23,86.732C2003.17,86.003 2003.13,85.286 2003.1,84.594C2003.09,84.332 2003.01,83.811 2003.11,83.831C2003.15,83.84 2003.04,83.524 2003.01,83.614C2003.52,82.171 2004.11,80.685 2004.56,78.937C2005.53,75.232 2006.3,71.571 2006.06,68.347C2005.81,64.855 2005.17,60.854 2002.29,60.287C2001.82,59.895 2001.31,60.517 2001.15,61.674C2000.99,62.832 2001.24,64.089 2001.71,64.481C2002.23,65.316 2002.49,66.228 2002.71,67.026C2002.77,67.252 2002.68,67.518 2002.7,67.737C2002.72,67.947 2002.5,67.716 2002.47,67.915C2002.4,68.416 2002.11,68.489 2001.92,68.949C2001.68,69.572 2001.35,69.954 2001.04,70.527C2000.52,71.492 1999.94,72.263 1999.42,73.018C1997.65,76.345 1997.07,80.866 1997.26,85.772C1997.33,87.604 1997.54,89.515 1997.85,91.374C1998.2,93.483 1998.66,95.53 1999.07,97.458C1999.27,98.369 1999.48,99.169 1999.62,99.977C1999.65,100.209 1999.81,100.519 1999.8,100.647Z"/>
                        </g>
                    </g>
                </g>
                <g transform="matrix(0.603448,0,0,0.603448,765.948,95.3775)">
                    <path d="M1929,209.5C1929,222.47 1980.98,233 2045,233C2109.02,233 2161,222.47 2161,209.5" style="fill:none;stroke:black;stroke-width:11.32px;"/>
                </g>
                <g transform="matrix(0.603448,0,0,0.603448,765.948,95.3775)">
                    <path d="M2076.49,186C2099.08,187.657 2161,196.53 2161,209.5L2115,284.308C2115,284.308 2083.63,298.489 2045,298.489C2006.37,298.489 1975,284.308 1975,284.308L1929,209.5C1929,196.53 1994.24,186 2013.51,186" style="fill:none;stroke:black;stroke-width:11.32px;"/>
                </g>
                <g transform="matrix(0.782605,0,0,1,434.657,-0.627443)">
                    <path d="M2027,219.855C2042.73,219.855 2014.23,225 1998.5,225C1982.77,225 1959,219.847 1970,219.855" style="fill:none;stroke:black;stroke-width:7.61px;"/>
                </g>
            </g>
        </g>
    </g>
</svg>
