<?xml version="1.0" encoding="UTF-8" standalone="no"?>
<!DOCTYPE svg PUBLIC "-//W3C//DTD SVG 1.1//EN" "http://www.w3.org/Graphics/SVG/1.1/DTD/svg11.dtd">
<svg width="100%" height="100%" viewBox="0 0 400 400" version="1.1" xmlns="http://www.w3.org/2000/svg" xmlns:xlink="http://www.w3.org/1999/xlink" xml:space="preserve" xmlns:serif="http://www.serif.com/" style="fill-rule:evenodd;clip-rule:evenodd;stroke-linecap:round;stroke-linejoin:round;stroke-miterlimit:1.5;">
    <g transform="matrix(1,0,0,1,-2702,0)">
        <g id="Sound" transform="matrix(1,0,0,1,452,0)">
            <rect x="2250" y="0" width="400" height="400" style="fill:none;"/>
            <g transform="matrix(1.0595,0,0,1.0595,-120.622,-16.296)">
                <g transform="matrix(0.486395,0,0,0.592784,1252.75,69.4897)">
                    <path d="M2581.06,250.53L2576.72,269.031L2549.74,311.812L2571.15,324.571L2559.2,396.219L2618.63,400.226L2640.38,255.591C2640.38,255.591 2610.34,255.591 2650.62,255.591C2690.9,255.591 2723.61,232.914 2723.61,204.983C2723.61,181.602 2699.71,161.099 2668.3,155.038C2662.19,153.858 2655.79,153.226 2649.22,153.226C2608.94,153.226 2384.86,130.206 2297,54C2276.33,156.616 2277.32,253.348 2297,345C2397.87,277.958 2485.9,247.812 2581.06,250.53" style="fill:none;stroke:black;stroke-width:17.41px;"/>
                </g>
                <g transform="matrix(0.638712,-0.199332,-0.199332,0.890024,862.808,489.912)">
                    <path d="M2370,142L2283,94" style="fill:none;"/>
                    <path d="M2371.31,139.622L2286.65,87.389C2279.75,83.581 2272.51,83.452 2270.5,87.101C2268.48,90.75 2272.45,96.804 2279.35,100.611L2368.69,144.378C2371.17,145.748 2373.77,145.794 2374.5,144.482C2375.22,143.169 2373.8,140.991 2371.31,139.622Z"/>
                </g>
                <g transform="matrix(0.683911,-0.000908303,-0.000908303,0.999997,713.803,2.32415)">
                    <path d="M2370,188L2283,187.75" style="fill:none;"/>
                    <path d="M2370.01,185.284L2283.02,180.199C2276.93,180.182 2271.97,183.551 2271.96,187.718C2271.95,191.886 2276.89,195.283 2282.98,195.301L2369.99,190.716C2372.18,190.723 2373.97,189.511 2373.97,188.011C2373.98,186.512 2372.2,185.29 2370.01,185.284Z"/>
                </g>
                <g transform="matrix(0.756183,0.16852,0.16852,0.883523,517.842,-370.986)">
                    <path d="M2370,227L2302,274" style="fill:none;"/>
                    <path d="M2368.46,224.766L2297.71,267.789C2292.35,271.493 2289.92,277.283 2292.29,280.711C2294.66,284.139 2300.93,283.915 2306.29,280.211L2371.54,229.234C2373.47,227.902 2374.35,225.819 2373.49,224.586C2372.64,223.353 2370.38,223.433 2368.46,224.766Z"/>
                </g>
                <g transform="matrix(0.740105,0,0,1.58069,650.296,-104.35)">
                    <path d="M2504.23,166.271C2505.45,169.111 2506.14,171.815 2506.7,174.483C2507.09,176.335 2507.3,178.126 2507.47,179.9C2507.62,181.416 2507.65,182.901 2507.71,184.368C2507.78,185.875 2507.87,187.355 2507.86,188.821C2507.83,191.369 2507.65,193.839 2507.05,196.298C2506.42,198.853 2505.6,201.332 2504.26,203.81C2503.89,204.261 2504.38,204.765 2505.34,204.935C2506.3,205.105 2507.38,204.877 2507.74,204.426C2511.61,200.829 2514.65,197.116 2516.59,193.121C2517.36,191.546 2517.89,189.944 2518.23,188.301C2518.46,187.23 2518.58,186.145 2518.57,185.048C2518.55,183.975 2518.39,182.892 2518.13,181.803C2517.75,180.219 2517.2,178.623 2516.38,177.014C2514.49,173.295 2511.53,169.596 2507.77,165.729C2507.45,165.271 2506.4,165.021 2505.42,165.171C2504.44,165.321 2503.91,165.814 2504.23,166.271Z"/>
                </g>
                <g transform="matrix(0.740105,0,0,1.58069,682.477,-104.35)">
                    <path d="M2504.23,166.271C2505.45,169.111 2506.14,171.815 2506.7,174.483C2507.09,176.335 2507.3,178.126 2507.47,179.9C2507.62,181.416 2507.65,182.901 2507.71,184.368C2507.78,185.875 2507.87,187.355 2507.86,188.821C2507.83,191.369 2507.65,193.839 2507.05,196.298C2506.42,198.853 2505.6,201.332 2504.26,203.81C2503.89,204.261 2504.38,204.765 2505.34,204.935C2506.3,205.105 2507.38,204.877 2507.74,204.426C2511.61,200.829 2514.65,197.116 2516.59,193.121C2517.36,191.546 2517.89,189.944 2518.23,188.301C2518.46,187.23 2518.58,186.145 2518.57,185.048C2518.55,183.975 2518.39,182.892 2518.13,181.803C2517.75,180.219 2517.2,178.623 2516.38,177.014C2514.49,173.295 2511.53,169.596 2507.77,165.729C2507.45,165.271 2506.4,165.021 2505.42,165.171C2504.44,165.321 2503.91,165.814 2504.23,166.271Z"/>
                </g>
            </g>
        </g>
    </g>
</svg>
