<?xml version="1.0" encoding="UTF-8" standalone="no"?>
<!DOCTYPE svg PUBLIC "-//W3C//DTD SVG 1.1//EN" "http://www.w3.org/Graphics/SVG/1.1/DTD/svg11.dtd">
<svg width="100%" height="100%" viewBox="0 0 196 146" version="1.1" xmlns="http://www.w3.org/2000/svg" xmlns:xlink="http://www.w3.org/1999/xlink" xml:space="preserve" xmlns:serif="http://www.serif.com/" style="fill-rule:evenodd;clip-rule:evenodd;stroke-linecap:round;stroke-linejoin:round;stroke-miterlimit:1.5;">
    <g transform="matrix(1,0,0,1,-687.209,-111.92)">
        <g transform="matrix(1,0,0,1,-2132,0)">
            <g transform="matrix(0.727685,0,0,0.727487,833.604,39.4201)">
                <g opacity="0.8">
                    <g transform="matrix(0.744094,0,0,0.744094,2674.23,23.6496)">
                        <path d="M208,110L335,364L81,364L208,110Z" style="fill:rgb(118,95,0);stroke:black;stroke-width:15.7px;"/>
                    </g>
                    <g transform="matrix(0.744094,0,0,0.744094,712.394,51.1811)">
                        <g transform="matrix(1,0,0,1,2645,0)">
                            <circle cx="339" cy="152" r="79" style="fill:rgb(118,95,0);stroke:black;stroke-width:15.7px;"/>
                        </g>
                        <g transform="matrix(0.852632,0,0,1,2813.47,0)">
                            <path d="M200,73L105,73L105,327L200,327L200,231" style="fill:rgb(118,95,0);stroke:black;stroke-width:16.9px;"/>
                        </g>
                    </g>
                </g>
            </g>
        </g>
    </g>
</svg>
