<?xml version="1.0" encoding="UTF-8" standalone="no"?>
<!DOCTYPE svg PUBLIC "-//W3C//DTD SVG 1.1//EN" "http://www.w3.org/Graphics/SVG/1.1/DTD/svg11.dtd">
<svg width="100%" height="100%" viewBox="0 0 184 328" version="1.1" xmlns="http://www.w3.org/2000/svg" xmlns:xlink="http://www.w3.org/1999/xlink" xml:space="preserve" xmlns:serif="http://www.serif.com/" style="fill-rule:evenodd;clip-rule:evenodd;stroke-linejoin:round;stroke-miterlimit:2;">
    <g transform="matrix(1,0,0,1,-1010.02,-1565.11)">
        <g transform="matrix(1,0,0,1,-2257.23,1522.59)">
            <g transform="matrix(1,0,0,1,2257.23,-1522.59)">
                <path d="M1010.1,1728.63C1009.58,1722.45 1011.69,1716.11 1016.4,1711.39L1156.3,1571.5C1164.81,1562.99 1178.63,1562.99 1187.14,1571.5C1195.65,1580.01 1195.65,1593.83 1187.14,1602.34L1060.86,1728.63L1187.14,1854.91C1195.65,1863.42 1195.65,1877.24 1187.14,1885.76C1178.63,1894.27 1164.81,1894.27 1156.3,1885.76L1016.4,1745.87C1011.69,1741.15 1009.58,1734.8 1010.1,1728.63Z"/>
            </g>
        </g>
    </g>
</svg>
