<?xml version="1.0" encoding="UTF-8" standalone="no"?>
<!DOCTYPE svg PUBLIC "-//W3C//DTD SVG 1.1//EN" "http://www.w3.org/Graphics/SVG/1.1/DTD/svg11.dtd">
<svg width="100%" height="100%" viewBox="0 0 180 187" version="1.1" xmlns="http://www.w3.org/2000/svg" xmlns:xlink="http://www.w3.org/1999/xlink" xml:space="preserve" xmlns:serif="http://www.serif.com/" style="fill-rule:evenodd;clip-rule:evenodd;stroke-linejoin:round;stroke-miterlimit:2;">
    <g transform="matrix(1,0,0,1,-584,-1125.83)">
        <g transform="matrix(1,0,0,1,-2675,1022)">
            <g transform="matrix(6.06261e-17,0.990099,-0.925743,5.66854e-17,4493.94,46.5347)">
                <path d="M243.29,1140.25C245.195,1140.25 246.739,1141.9 246.739,1143.94C246.739,1154.51 246.739,1185.12 246.739,1200.08C246.739,1202.32 245.908,1204.46 244.429,1206.04C242.951,1207.62 240.945,1208.51 238.854,1208.51C203.091,1208.51 57.869,1208.51 57.869,1208.51L246.739,1265.73L246.739,1326.57C246.739,1330.67 243.627,1334 239.787,1334C210.12,1334 94.283,1334 64.751,1334C60.95,1334 57.869,1330.7 57.869,1326.64L57.869,1274.15C57.869,1269.5 61.394,1265.73 65.743,1265.73C101.486,1265.73 246.739,1265.73 246.739,1265.73L57.869,1208.51L57.869,1143.22C57.869,1141.58 59.112,1140.25 60.645,1140.25C81.976,1140.25 219.662,1140.25 243.29,1140.25Z" style="fill:rgb(21,19,16);"/>
            </g>
        </g>
    </g>
</svg>
