{
    "asset" : {
        "generator" : "Khronos glTF Blender I/O v1.1.46",
        "version" : "2.0"
    },
    "scene" : 0,
    "scenes" : [
        {
            "name" : "Scene",
            "nodes" : [
                0
            ]
        }
    ],
    "nodes" : [
        {
            "mesh" : 0,
            "name" : "kubiikkeli"
        }
    ],
    "animations" : [
        {
            "channels" : [
                {
                    "sampler" : 0,
                    "target" : {
                        "node" : 0,
                        "path" : "weights"
                    }
                }
            ],
            "name" : "Key.002Action",
            "samplers" : [
                {
                    "input" : 8,
                    "interpolation" : "LINEAR",
                    "output" : 9
                }
            ]
        }
    ],
    "materials" : [
        {
            "doubleSided" : true,
            "emissiveFactor" : [
                1,
                0.33967211842536926,
                0
            ],
            "name" : "Material.001",
            "pbrMetallicRoughness" : {
                "metallicFactor" : 0.7181817889213562
            }
        }
    ],
    "meshes" : [
        {
            "extras" : {
                "targetNames" : [
                    "Shrinkwrap",
                    "Shrinkwrap.001"
                ]
            },
            "name" : "Cube",
            "primitives" : [
                {
                    "attributes" : {
                        "POSITION" : 0,
                        "NORMAL" : 1,
                        "TEXCOORD_0" : 2
                    },
                    "indices" : 3,
                    "material" : 0,
                    "targets" : [
                        {
                            "POSITION" : 4,
                            "NORMAL" : 5
                        },
                        {
                            "POSITION" : 6,
                            "NORMAL" : 7
                        }
                    ]
                }
            ],
            "weights" : [
                0,
                0
            ]
        }
    ],
    "accessors" : [
        {
            "bufferView" : 0,
            "componentType" : 5126,
            "count" : 2904,
            "max" : [
                1,
                1,
                1
            ],
            "min" : [
                -1,
                -1,
                -1
            ],
            "type" : "VEC3"
        },
        {
            "bufferView" : 1,
            "componentType" : 5126,
            "count" : 2904,
            "type" : "VEC3"
        },
        {
            "bufferView" : 2,
            "componentType" : 5126,
            "count" : 2904,
            "type" : "VEC2"
        },
        {
            "bufferView" : 3,
            "componentType" : 5123,
            "count" : 4356,
            "type" : "SCALAR"
        },
        {
            "bufferView" : 4,
            "componentType" : 5126,
            "count" : 2904,
            "max" : [
                0.41791456937789917,
                0.44442981481552124,
                0.4179146885871887
            ],
            "min" : [
                -0.4179145097732544,
                -0.44442981481552124,
                -0.41791439056396484
            ],
            "type" : "VEC3"
        },
        {
            "bufferView" : 5,
            "componentType" : 5126,
            "count" : 2904,
            "type" : "VEC3"
        },
        {
            "bufferView" : 6,
            "componentType" : 5126,
            "count" : 2904,
            "max" : [
                0.8114651441574097,
                0.028681635856628418,
                0.8114649057388306
            ],
            "min" : [
                -0.8114648461341858,
                -0.57142174243927,
                -0.8114651441574097
            ],
            "type" : "VEC3"
        },
        {
            "bufferView" : 7,
            "componentType" : 5126,
            "count" : 2904,
            "type" : "VEC3"
        },
        {
            "bufferView" : 8,
            "componentType" : 5126,
            "count" : 96,
            "max" : [
                4
            ],
            "min" : [
                0.041666666666666664
            ],
            "type" : "SCALAR"
        },
        {
            "bufferView" : 9,
            "componentType" : 5126,
            "count" : 192,
            "type" : "SCALAR"
        }
    ],
    "bufferViews" : [
        {
            "buffer" : 0,
            "byteLength" : 34848,
            "byteOffset" : 0
        },
        {
            "buffer" : 0,
            "byteLength" : 34848,
            "byteOffset" : 34848
        },
        {
            "buffer" : 0,
            "byteLength" : 23232,
            "byteOffset" : 69696
        },
        {
            "buffer" : 0,
            "byteLength" : 8712,
            "byteOffset" : 92928
        },
        {
            "buffer" : 0,
            "byteLength" : 34848,
            "byteOffset" : 101640
        },
        {
            "buffer" : 0,
            "byteLength" : 34848,
            "byteOffset" : 136488
        },
        {
            "buffer" : 0,
            "byteLength" : 34848,
            "byteOffset" : 171336
        },
        {
            "buffer" : 0,
            "byteLength" : 34848,
            "byteOffset" : 206184
        },
        {
            "buffer" : 0,
            "byteLength" : 384,
            "byteOffset" : 241032
        },
        {
            "buffer" : 0,
            "byteLength" : 768,
            "byteOffset" : 241416
        }
    ],
    "buffers" : [
        {
            "byteLength" : 242184,
            "uri" : "data:application/octet-stream;base64,"
        }
    ]
}
