{
    "asset" : {
        "generator" : "Khronos glTF Blender I/O v1.1.46",
        "version" : "2.0"
    },
    "scene" : 0,
    "scenes" : [
        {
            "name" : "Scene",
            "nodes" : [
                0
            ]
        }
    ],
    "nodes" : [
        {
            "mesh" : 0,
            "name" : "Cylinder",
            "scale" : [
                0.7435756325721741,
                1,
                0.7435756325721741
            ]
        }
    ],
    "materials" : [
        {
            "doubleSided" : true,
            "emissiveFactor" : [
                0,
                0,
                0
            ],
            "name" : "Material.001",
            "pbrMetallicRoughness" : {
                "baseColorFactor" : [
                    0.8000000715255737,
                    0.43914613127708435,
                    0.2516752779483795,
                    1
                ],
                "metallicFactor" : 0,
                "roughnessFactor" : 0.3333333134651184
            }
        },
        {
            "doubleSided" : true,
            "name" : "Material.005",
            "pbrMetallicRoughness" : {}
        },
        {
            "doubleSided" : true,
            "emissiveFactor" : [
                400,
                110,
                0.379448264837265
            ],
            "name" : "Material.003",
            "pbrMetallicRoughness" : {
                "baseColorFactor" : [
                    0.8000000715255737,
                    0.20739708840847015,
                    0.008404065854847431,
                    1
                ],
                "metallicFactor" : 0,
                "roughnessFactor" : 0.5
            }
        },
        {
            "doubleSided" : true,
            "emissiveFactor" : [
                0,
                0,
                0
            ],
            "name" : "Material.002",
            "pbrMetallicRoughness" : {
                "baseColorFactor" : [
                    1,
                    1,
                    1,
                    1
                ],
                "metallicFactor" : 0,
                "roughnessFactor" : 1
            }
        }
    ],
    "meshes" : [
        {
            "name" : "Cylinder.006",
            "primitives" : [
                {
                    "attributes" : {
                        "POSITION" : 0,
                        "NORMAL" : 1,
                        "TEXCOORD_0" : 2
                    },
                    "indices" : 3,
                    "material" : 0
                },
                {
                    "attributes" : {
                        "POSITION" : 4,
                        "NORMAL" : 5,
                        "TEXCOORD_0" : 6
                    },
                    "indices" : 7,
                    "material" : 1
                },
                {
                    "attributes" : {
                        "POSITION" : 8,
                        "NORMAL" : 9,
                        "TEXCOORD_0" : 10
                    },
                    "indices" : 11,
                    "material" : 2
                },
                {
                    "attributes" : {
                        "POSITION" : 12,
                        "NORMAL" : 13,
                        "TEXCOORD_0" : 14
                    },
                    "indices" : 15,
                    "material" : 3
                }
            ]
        }
    ],
    "accessors" : [
        {
            "bufferView" : 0,
            "componentType" : 5126,
            "count" : 31711,
            "max" : [
                0.8906973004341125,
                0.25256264209747314,
                0.8909685015678406
            ],
            "min" : [
                -0.8906973004341125,
                -0.3512091338634491,
                -0.8909683227539062
            ],
            "type" : "VEC3"
        },
        {
            "bufferView" : 1,
            "componentType" : 5126,
            "count" : 31711,
            "type" : "VEC3"
        },
        {
            "bufferView" : 2,
            "componentType" : 5126,
            "count" : 31711,
            "type" : "VEC2"
        },
        {
            "bufferView" : 3,
            "componentType" : 5123,
            "count" : 146976,
            "type" : "SCALAR"
        },
        {
            "bufferView" : 4,
            "componentType" : 5126,
            "count" : 80,
            "max" : [
                0.02345796674489975,
                0.9543053507804871,
                0.06755677610635757
            ],
            "min" : [
                -0.023457946255803108,
                0.8015888333320618,
                0.020640861243009567
            ],
            "type" : "VEC3"
        },
        {
            "bufferView" : 5,
            "componentType" : 5126,
            "count" : 80,
            "type" : "VEC3"
        },
        {
            "bufferView" : 6,
            "componentType" : 5126,
            "count" : 80,
            "type" : "VEC2"
        },
        {
            "bufferView" : 7,
            "componentType" : 5123,
            "count" : 132,
            "type" : "SCALAR"
        },
        {
            "bufferView" : 8,
            "componentType" : 5126,
            "count" : 752,
            "max" : [
                0.048707328736782074,
                1.1173595190048218,
                0.11449389904737473
            ],
            "min" : [
                -0.048745378851890564,
                0.9346587061882019,
                0.0010945722460746765
            ],
            "type" : "VEC3"
        },
        {
            "bufferView" : 9,
            "componentType" : 5126,
            "count" : 752,
            "type" : "VEC3"
        },
        {
            "bufferView" : 10,
            "componentType" : 5126,
            "count" : 752,
            "type" : "VEC2"
        },
        {
            "bufferView" : 11,
            "componentType" : 5123,
            "count" : 1080,
            "type" : "SCALAR"
        },
        {
            "bufferView" : 12,
            "componentType" : 5126,
            "count" : 3498,
            "max" : [
                0.2215414047241211,
                0.8705882430076599,
                0.25224900245666504
            ],
            "min" : [
                -0.22173477709293365,
                -0.03208222985267639,
                -0.24922041594982147
            ],
            "type" : "VEC3"
        },
        {
            "bufferView" : 13,
            "componentType" : 5126,
            "count" : 3498,
            "type" : "VEC3"
        },
        {
            "bufferView" : 14,
            "componentType" : 5126,
            "count" : 3498,
            "type" : "VEC2"
        },
        {
            "bufferView" : 15,
            "componentType" : 5123,
            "count" : 20976,
            "type" : "SCALAR"
        }
    ],
    "bufferViews" : [
        {
            "buffer" : 0,
            "byteLength" : 380532,
            "byteOffset" : 0
        },
        {
            "buffer" : 0,
            "byteLength" : 380532,
            "byteOffset" : 380532
        },
        {
            "buffer" : 0,
            "byteLength" : 253688,
            "byteOffset" : 761064
        },
        {
            "buffer" : 0,
            "byteLength" : 293952,
            "byteOffset" : 1014752
        },
        {
            "buffer" : 0,
            "byteLength" : 960,
            "byteOffset" : 1308704
        },
        {
            "buffer" : 0,
            "byteLength" : 960,
            "byteOffset" : 1309664
        },
        {
            "buffer" : 0,
            "byteLength" : 640,
            "byteOffset" : 1310624
        },
        {
            "buffer" : 0,
            "byteLength" : 264,
            "byteOffset" : 1311264
        },
        {
            "buffer" : 0,
            "byteLength" : 9024,
            "byteOffset" : 1311528
        },
        {
            "buffer" : 0,
            "byteLength" : 9024,
            "byteOffset" : 1320552
        },
        {
            "buffer" : 0,
            "byteLength" : 6016,
            "byteOffset" : 1329576
        },
        {
            "buffer" : 0,
            "byteLength" : 2160,
            "byteOffset" : 1335592
        },
        {
            "buffer" : 0,
            "byteLength" : 41976,
            "byteOffset" : 1337752
        },
        {
            "buffer" : 0,
            "byteLength" : 41976,
            "byteOffset" : 1379728
        },
        {
            "buffer" : 0,
            "byteLength" : 27984,
            "byteOffset" : 1421704
        },
        {
            "buffer" : 0,
            "byteLength" : 41952,
            "byteOffset" : 1449688
        }
    ],
    "buffers" : [
        {
            "byteLength" : 1491640,
            "uri" : "data:application/octet-stream;base64,"
        }
    ]
}
