{
    "asset" : {
        "generator" : "Khronos glTF Blender I/O v1.1.46",
        "version" : "2.0"
    },
    "scene" : 0,
    "scenes" : [
        {
            "name" : "Scene",
            "nodes" : [
                0,
                1,
                2,
                3,
                4
            ]
        }
    ],
    "nodes" : [
        {
            "mesh" : 0,
            "name" : "sydanCylinder",
            "scale" : [
                0.2736484110355377,
                0.813606321811676,
                0.2736484110355377
            ],
            "translation" : [
                0,
                1.5300495624542236,
                0
            ]
        },
        {
            "mesh" : 1,
            "name" : "alustaCylinder",
            "scale" : [
                0.7651194334030151,
                0.669061541557312,
                0.7651194334030151
            ],
            "translation" : [
                0,
                0.15699054300785065,
                0
            ]
        },
        {
            "mesh" : 2,
            "name" : "liekkiCube",
            "scale" : [
                0.32683077454566956,
                1.3421493768692017,
                0.32683077454566956
            ],
            "translation" : [
                0,
                1.6444172859191895,
                0
            ]
        },
        {
            "mesh" : 3,
            "name" : "kynttilaCylinder",
            "translation" : [
                0,
                0.6783288717269897,
                0
            ]
        },
        {
            "mesh" : 4,
            "name" : "pikkuLiekkiCube",
            "scale" : [
                0.10570699721574783,
                0.43409186601638794,
                0.10570699721574783
            ],
            "translation" : [
                0,
                1.6003252267837524,
                0
            ]
        }
    ],
    "materials" : [
        {
            "doubleSided" : true,
            "emissiveFactor" : [
                0,
                0,
                0
            ],
            "name" : "sydanMaterial",
            "pbrMetallicRoughness" : {
                "baseColorFactor" : [
                    0.800000011920929,
                    0.800000011920929,
                    0.800000011920929,
                    1
                ],
                "metallicFactor" : 0,
                "roughnessFactor" : 0.5
            }
        },
        {
            "doubleSided" : true,
            "emissiveFactor" : [
                0,
                0,
                0
            ],
            "name" : "alustaMaterial",
            "pbrMetallicRoughness" : {
                "baseColorFactor" : [
                    0.2774105370044708,
                    0.06464586406946182,
                    0.023325657472014427,
                    1
                ],
                "metallicFactor" : 0,
                "roughnessFactor" : 0.5
            }
        },
        {
            "doubleSided" : true,
            "emissiveFactor" : [
                1,
                0,
                0
            ],
            "name" : "liekkiMaterial",
            "pbrMetallicRoughness" : {
                "baseColorFactor" : [
                    0.800000011920929,
                    0.800000011920929,
                    0.800000011920929,
                    1
                ],
                "metallicFactor" : 0,
                "roughnessFactor" : 1
            }
        },
        {
            "doubleSided" : true,
            "emissiveFactor" : [
                0,
                0,
                0
            ],
            "name" : "kynttilaMaterial",
            "pbrMetallicRoughness" : {
                "baseColorFactor" : [
                    0.800000011920929,
                    0.800000011920929,
                    0.800000011920929,
                    1
                ],
                "metallicFactor" : 0,
                "roughnessFactor" : 1
            }
        },
        {
            "doubleSided" : true,
            "emissiveFactor" : [
                1,
                0.0018826950108632445,
                0
            ],
            "name" : "pikkuLiekkiMaterial",
            "pbrMetallicRoughness" : {
                "baseColorFactor" : [
                    0.8000000715255737,
                    0.038663823157548904,
                    0.00692165270447731,
                    1
                ],
                "metallicFactor" : 0,
                "roughnessFactor" : 1
            }
        }
    ],
    "meshes" : [
        {
            "name" : "Cylinder.003",
            "primitives" : [
                {
                    "attributes" : {
                        "POSITION" : 0,
                        "NORMAL" : 1,
                        "TEXCOORD_0" : 2
                    },
                    "indices" : 3,
                    "material" : 0
                }
            ]
        },
        {
            "name" : "Cylinder.005",
            "primitives" : [
                {
                    "attributes" : {
                        "POSITION" : 4,
                        "NORMAL" : 5,
                        "TEXCOORD_0" : 6
                    },
                    "indices" : 7,
                    "material" : 1
                }
            ]
        },
        {
            "name" : "Cube.001",
            "primitives" : [
                {
                    "attributes" : {
                        "POSITION" : 8,
                        "NORMAL" : 9,
                        "TEXCOORD_0" : 10
                    },
                    "indices" : 11,
                    "material" : 2
                }
            ]
        },
        {
            "name" : "Cylinder.007",
            "primitives" : [
                {
                    "attributes" : {
                        "POSITION" : 12,
                        "NORMAL" : 13,
                        "TEXCOORD_0" : 14
                    },
                    "indices" : 15,
                    "material" : 3
                }
            ]
        },
        {
            "name" : "Cube.003",
            "primitives" : [
                {
                    "attributes" : {
                        "POSITION" : 16,
                        "NORMAL" : 17,
                        "TEXCOORD_0" : 18
                    },
                    "indices" : 11,
                    "material" : 4
                }
            ]
        }
    ],
    "accessors" : [
        {
            "bufferView" : 0,
            "componentType" : 5126,
            "count" : 30,
            "max" : [
                0.028531718999147415,
                0.04213772341609001,
                0.02427053079009056
            ],
            "min" : [
                -0.028531717136502266,
                -0.08500006049871445,
                -0.030000023543834686
            ],
            "type" : "VEC3"
        },
        {
            "bufferView" : 1,
            "componentType" : 5126,
            "count" : 30,
            "type" : "VEC3"
        },
        {
            "bufferView" : 2,
            "componentType" : 5126,
            "count" : 30,
            "type" : "VEC2"
        },
        {
            "bufferView" : 3,
            "componentType" : 5123,
            "count" : 48,
            "type" : "SCALAR"
        },
        {
            "bufferView" : 4,
            "componentType" : 5126,
            "count" : 469,
            "max" : [
                0.8721160292625427,
                0.31863805651664734,
                0.8721160292625427
            ],
            "min" : [
                -0.8721160292625427,
                -0.2968039810657501,
                -0.8721159100532532
            ],
            "type" : "VEC3"
        },
        {
            "bufferView" : 5,
            "componentType" : 5126,
            "count" : 469,
            "type" : "VEC3"
        },
        {
            "bufferView" : 6,
            "componentType" : 5126,
            "count" : 469,
            "type" : "VEC2"
        },
        {
            "bufferView" : 7,
            "componentType" : 5123,
            "count" : 2088,
            "type" : "SCALAR"
        },
        {
            "bufferView" : 8,
            "componentType" : 5126,
            "count" : 136,
            "max" : [
                0.08140742778778076,
                0.07488247007131577,
                0.07592686265707016
            ],
            "min" : [
                -0.08140742778778076,
                -0.06956429779529572,
                -0.08593722432851791
            ],
            "type" : "VEC3"
        },
        {
            "bufferView" : 9,
            "componentType" : 5126,
            "count" : 136,
            "type" : "VEC3"
        },
        {
            "bufferView" : 10,
            "componentType" : 5126,
            "count" : 136,
            "type" : "VEC2"
        },
        {
            "bufferView" : 11,
            "componentType" : 5123,
            "count" : 618,
            "type" : "SCALAR"
        },
        {
            "bufferView" : 12,
            "componentType" : 5126,
            "count" : 52,
            "max" : [
                0.14000004529953003,
                0.7999999523162842,
                0.14000004529953003
            ],
            "min" : [
                -0.14000004529953003,
                -0.4170614182949066,
                -0.14000004529953003
            ],
            "type" : "VEC3"
        },
        {
            "bufferView" : 13,
            "componentType" : 5126,
            "count" : 52,
            "type" : "VEC3"
        },
        {
            "bufferView" : 14,
            "componentType" : 5126,
            "count" : 52,
            "type" : "VEC2"
        },
        {
            "bufferView" : 15,
            "componentType" : 5123,
            "count" : 186,
            "type" : "SCALAR"
        },
        {
            "bufferView" : 16,
            "componentType" : 5126,
            "count" : 136,
            "max" : [
                0.08140742778778076,
                0.07488247007131577,
                0.07592686265707016
            ],
            "min" : [
                -0.08140742778778076,
                -0.06956429779529572,
                -0.08593722432851791
            ],
            "type" : "VEC3"
        },
        {
            "bufferView" : 17,
            "componentType" : 5126,
            "count" : 136,
            "type" : "VEC3"
        },
        {
            "bufferView" : 18,
            "componentType" : 5126,
            "count" : 136,
            "type" : "VEC2"
        }
    ],
    "bufferViews" : [
        {
            "buffer" : 0,
            "byteLength" : 360,
            "byteOffset" : 0
        },
        {
            "buffer" : 0,
            "byteLength" : 360,
            "byteOffset" : 360
        },
        {
            "buffer" : 0,
            "byteLength" : 240,
            "byteOffset" : 720
        },
        {
            "buffer" : 0,
            "byteLength" : 96,
            "byteOffset" : 960
        },
        {
            "buffer" : 0,
            "byteLength" : 5628,
            "byteOffset" : 1056
        },
        {
            "buffer" : 0,
            "byteLength" : 5628,
            "byteOffset" : 6684
        },
        {
            "buffer" : 0,
            "byteLength" : 3752,
            "byteOffset" : 12312
        },
        {
            "buffer" : 0,
            "byteLength" : 4176,
            "byteOffset" : 16064
        },
        {
            "buffer" : 0,
            "byteLength" : 1632,
            "byteOffset" : 20240
        },
        {
            "buffer" : 0,
            "byteLength" : 1632,
            "byteOffset" : 21872
        },
        {
            "buffer" : 0,
            "byteLength" : 1088,
            "byteOffset" : 23504
        },
        {
            "buffer" : 0,
            "byteLength" : 1236,
            "byteOffset" : 24592
        },
        {
            "buffer" : 0,
            "byteLength" : 624,
            "byteOffset" : 25828
        },
        {
            "buffer" : 0,
            "byteLength" : 624,
            "byteOffset" : 26452
        },
        {
            "buffer" : 0,
            "byteLength" : 416,
            "byteOffset" : 27076
        },
        {
            "buffer" : 0,
            "byteLength" : 372,
            "byteOffset" : 27492
        },
        {
            "buffer" : 0,
            "byteLength" : 1632,
            "byteOffset" : 27864
        },
        {
            "buffer" : 0,
            "byteLength" : 1632,
            "byteOffset" : 29496
        },
        {
            "buffer" : 0,
            "byteLength" : 1088,
            "byteOffset" : 31128
        }
    ],
    "buffers" : [
        {
            "byteLength" : 32216,
            "uri" : "data:application/octet-stream;base64,"
        }
    ]
}
